<svg xmlns="http://www.w3.org/2000/svg" xmlns:xlink="http://www.w3.org/1999/xlink">
  <defs>
    <symbol id="X" viewBox="0 0 24 24" fill="none"><path d="M4.247 3.904a.606.606 0 0 0 0 .857l6.698 6.698-7.213 7.213a.606.606 0 0 0 0 .857l.215.214c.236.237.62.237.857 0l7.212-7.212 7.17 7.17c.237.236.62.236.857 0l.215-.215a.606.606 0 0 0 0-.857l-7.17-7.17 6.655-6.655a.606.606 0 0 0 0-.857l-.214-.215a.606.606 0 0 0-.857 0l-6.656 6.656L5.318 3.69a.606.606 0 0 0-.857 0l-.214.214Z" fill="#A3DEBA"/></symbol>
    <symbol id="O" viewBox="0 0 24 24" fill="none"><path fill-rule="evenodd" clip-rule="evenodd" d="M11.97 20.667a8.697 8.697 0 1 0 0-17.394 8.697 8.697 0 0 0 0 17.394Zm0 1.394c5.573 0 10.09-4.518 10.09-10.091 0-5.573-4.517-10.091-10.09-10.091-5.573 0-10.091 4.518-10.091 10.09 0 5.574 4.518 10.092 10.09 10.092Z" fill="#F6A0F3"/></symbol>
  </defs>
</svg>